PathFileType	4	(X/Y/Z)	/Users/itak/Documents/Research/Walk-IL/dataset/trc/00447_00167.trc
DataRate	CameraRate	NumFrames	NumMarkers	Units	OrigDataRate	OrigDataStartFrame	OrigNumFrames
100.000000	100.000000	4	55	mm	100.000000	257	294
Frame#	Time	RPSI			LPSI			L3			STRN			T10			C7			CLAV			RBAK			LBAK			LSHO			LUPA			LAEL			LAOL			LWTS			LWPS			LFRA			LIFD			LHPS			LHTS			RSHO			RUPA			RAEL			RAOL			RWTS			RWPS			RFRA			RIFD			RHTS			RHPS			RBHD			LFHD			RFHD			LBHD			LHIP			RHIP			RASI			LASI			LKNE			LTHI			LANK			LTIP			LTOE			LMT1			LMT5			LHEE			RKNE			RTHI			RANK			RTIP			RTOE			RMT1			RMT5			RHEE			*53			*54			
		X1	Y1	Z1	X2	Y2	Z2	X3	Y3	Z3	X4	Y4	Z4	X5	Y5	Z5	X6	Y6	Z6	X7	Y7	Z7	X8	Y8	Z8	X9	Y9	Z9	X10	Y10	Z10	X11	Y11	Z11	X12	Y12	Z12	X13	Y13	Z13	X14	Y14	Z14	X15	Y15	Z15	X16	Y16	Z16	X17	Y17	Z17	X18	Y18	Z18	X19	Y19	Z19	X20	Y20	Z20	X21	Y21	Z21	X22	Y22	Z22	X23	Y23	Z23	X24	Y24	Z24	X25	Y25	Z25	X26	Y26	Z26	X27	Y27	Z27	X28	Y28	Z28	X29	Y29	Z29	X30	Y30	Z30	X31	Y31	Z31	X32	Y32	Z32	X33	Y33	Z33	X34	Y34	Z34	X35	Y35	Z35	X36	Y36	Z36	X37	Y37	Z37	X38	Y38	Z38	X39	Y39	Z39	X40	Y40	Z40	X41	Y41	Z41	X42	Y42	Z42	X43	Y43	Z43	X44	Y44	Z44	X45	Y45	Z45	X46	Y46	Z46	X47	Y47	Z47	X48	Y48	Z48	X49	Y49	Z49	X50	Y50	Z50	X51	Y51	Z51	X52	Y52	Z52	X53	Y53	Z53	X54	Y54	Z54	X55	Y55	Z55	

258	2.57	1117.807250976562	933.7611694335938	928.6543579101562	1190.233154296875	930.9722290039062	806.8099975585938	1153.423950195312	1032.462280273438	879.8217163085938	1393.447631835938	1245.583374023438	988.9825439453125	1137.35595703125	1156.147705078125	861.3565673828125	1181.62744140625	1430.027709960938	891.9689331054688	1357.079345703125	1356.863037109375	963.275146484375	1088.041381835938	1308.599975585938	949.1301879882812	1195.2255859375	1376.906860351562	790.8785400390625	1319.783447265625	1407.535278320312	762.5288696289062	1367.025146484375	1304.139038085938	664.3399658203125	1457.996826171875	1125.265991210938	625.124755859375	1371.875	1064.27490234375	628.523193359375	1559.6220703125	1030.767333984375	778.734619140625	1591.004638671875	989.8414916992188	725.0411987304688	1517.933349609375	1071.9306640625	663.7409057617188	1662.178344726562	951.6054077148438	873.091796875	1646.99755859375	955.8432006835938	773.5394897460938	1626.596557617188	1005.6044921875	822.6182250976562	1170.697631835938	1404.16015625	1065.908081054688	1115.642456054688	1349.72998046875	1123.634643554688	1037.072265625	1088.646240234375	1196.42822265625	1013.669738769531	1073.624389648438	1134.725463867188	1080.283325195312	863.0986328125	1236.104248046875	995.0697021484375	880.2677001953125	1245.0654296875	1018.880554199219	1034.88720703125	1211.068481445312	1014.119506835938	717.0191040039062	1242.467163085938	1046.1044921875	766.8375244140625	1255.425048828125	975.1506958007812	793.4649047851562	1254.032958984375	1219.80078125	1631.6884765625	1001.673095703125	1401.833618164062	1649.096313476562	906.2845458984375	1353.414672851562	1652.082397460938	1026.597045898438	1269.594970703125	1631.453002929688	831.7799682617188	1376.298095703125	844.4117431640625	781.7323608398438	1149.722290039062	849.7330322265625	1114.241333007812	1269.53662109375	895.7650756835938	1110.107666015625	1412.031372070312	890.210693359375	896.460205078125	1433.050537109375	429.7743225097656	849.3606567382812	1444.132568359375	586.8839721679688	833.76220703125	1327.307861328125	20.77452659606934	769.1586303710938	1414.871826171875	273.5321044921875	821.172607421875	1474.917846679688	24.37634468078613	964.273681640625	1398.272094726562	37.78308868408203	941.1681518554688	1459.86328125	29.78915596008301	845.1876220703125	1253.764770507812	16.08791542053223	782.4866943359375	1200.894653320312	461.4466247558594	1129.504638671875	1255.411376953125	689.786865234375	1188.663940429688	1144.072021484375	33.84360885620117	1116.827270507812	1187.848876953125	316.7230834960938	1144.00732421875	1352.540893554688	32.44142913818359	1204.571655273438	1318.033447265625	39.32963943481445	1136.808959960938	1238.438720703125	33.99737930297852	1213.825439453125	1115.572387695312	24.00138092041016	1044.054931640625	nan	nan	nan	nan	nan	nan	
259	2.58	1119.5625	934.1031494140625	931.4797973632812	1192.009643554688	930.6758422851562	809.686767578125	1154.956909179688	1032.618408203125	882.9922485351562	1396.040161132812	1244.676391601562	992.265869140625	1138.9150390625	1156.462036132812	865.213623046875	1184.122192382812	1429.96875	896.7786865234375	1359.791015625	1356.063598632812	966.8650512695312	1090.2236328125	1308.692749023438	954.1116333007812	1197.31298828125	1376.987915039062	795.3865966796875	1322.074584960938	1406.962890625	766.1610717773438	1368.214599609375	1302.585815429688	668.0797729492188	1458.34228515625	1122.138916015625	628.3768310546875	1371.070678710938	1063.221557617188	632.2306518554688	1559.579711914062	1020.024536132812	776.86865234375	1589.259887695312	980.1407470703125	721.4666748046875	1517.598388671875	1065.857055664062	664.2026977539062	1661.707885742188	937.1018676757812	867.2603149414062	1645.232543945312	943.9283447265625	768.169677734375	1626.297973632812	992.6949462890625	818.7567138671875	1174.3515625	1402.938232421875	1071.194702148438	1120.242431640625	1347.677612304688	1129.2109375	1043.5078125	1086.94580078125	1203.1103515625	1019.221862792969	1071.734252929688	1141.7568359375	1087.546142578125	861.8881225585938	1243.311889648438	1002.396423339844	879.4699096679688	1253.104125976562	1025.64794921875	1033.200927734375	1218.119995117188	1020.565063476562	716.526611328125	1254.81396484375	1053.014404296875	766.0335083007812	1265.286743164062	982.2791748046875	793.4895629882812	1264.785522460938	1223.055419921875	1631.490234375	1006.506652832031	1404.818115234375	1648.3935546875	910.5408325195312	1356.790161132812	1651.343017578125	1030.97509765625	1272.31787109375	1631.350830078125	836.4080200195312	1377.912231445312	843.8688354492188	784.8621215820312	1150.640380859375	850.0072021484375	1116.916625976562	1270.807006835938	895.4876708984375	1113.179809570312	1413.741333007812	889.4443969726562	899.6239013671875	1434.142456054688	429.0531311035156	851.76953125	1445.70166015625	586.1614379882812	836.394775390625	1327.21630859375	20.76314544677734	769.2614135742188	1415.379272460938	273.1294555664062	822.517578125	1474.85107421875	24.41081428527832	964.2549438476562	1398.163818359375	37.69949722290039	941.2103271484375	1459.760620117188	29.94029998779297	845.321533203125	1253.666870117188	15.99559879302979	782.4609375	1199.0498046875	461.1695556640625	1129.488525390625	1257.480102539062	689.448486328125	1191.768310546875	1144.037719726562	33.44445419311523	1116.627319335938	1186.397705078125	316.3988342285156	1143.904418945312	1352.498779296875	32.47564315795898	1204.53759765625	1318.0498046875	39.3330192565918	1136.736572265625	1238.421875	34.00903701782227	1213.697021484375	1115.62451171875	23.38974571228027	1043.832275390625	nan	nan	nan	nan	nan	nan	
260	2.59	1121.210083007812	935.192626953125	934.0473022460938	1193.768310546875	931.0263671875	812.4428100585938	1156.459716796875	1033.414672851562	885.9163818359375	1398.395385742188	1244.450805664062	995.4465942382812	1140.35107421875	1157.32421875	868.724365234375	1186.52880859375	1430.37841796875	901.3367919921875	1362.260498046875	1355.951416015625	970.351806640625	1092.308349609375	1309.317260742188	958.8289794921875	1199.360717773438	1377.665161132812	799.6558837890625	1324.33203125	1407.063598632812	769.712646484375	1369.454833984375	1301.6748046875	671.8732299804688	1458.338012695312	1119.358520507812	631.8733520507812	1369.807495117188	1062.780151367188	636.5191040039062	1558.9365234375	1009.163757324219	774.631591796875	1586.602661132812	970.4246826171875	717.4352416992188	1516.702880859375	1059.990234375	664.6090698242188	1660.34033203125	922.0148315429688	860.5504760742188	1642.432373046875	931.7433471679688	762.075439453125	1625.313232421875	979.4000854492188	814.2598266601562	1177.744262695312	1402.391479492188	1076.116577148438	1124.565063476562	1346.459716796875	1134.426391601562	1049.8798828125	1085.823364257812	1209.262451171875	1024.734008789062	1070.334838867188	1148.271118164062	1095.574584960938	861.4238891601562	1250.094116210938	1010.411315917969	879.094970703125	1260.641357421875	1032.518188476562	1032.027587890625	1224.65478515625	1028.44189453125	716.5651245117188	1266.921630859375	1061.068359375	765.8544311523438	1274.79931640625	990.544189453125	794.0270385742188	1275.212768554688	1226.2314453125	1631.683349609375	1011.298950195312	1407.771728515625	1648.054077148438	914.83740234375	1360.09619140625	1650.9599609375	1035.41748046875	1275.033569335938	1631.6806640625	841.0345458984375	1379.371704101562	843.6937255859375	788.0037841796875	1151.30078125	850.8841552734375	1119.396606445312	1271.780883789062	895.8493041992188	1116.034912109375	1415.39306640625	889.2201538085938	902.7758178710938	1435.344360351562	428.6539001464844	854.17822265625	1447.3564453125	585.8516235351562	839.1119384765625	1327.241333007812	20.84600639343262	769.4337768554688	1416.01416015625	273.0616149902344	823.7939453125	1474.814575195312	24.44486427307129	964.2498779296875	1398.107543945312	37.65093231201172	941.24072265625	1459.720458984375	30.08223342895508	845.4901123046875	1253.689819335938	16.11801147460938	782.4437866210938	1197.078979492188	461.4083251953125	1129.699462890625	1259.290771484375	689.7127685546875	1194.677612304688	1143.964477539062	33.22458648681641	1116.652709960938	1184.805786132812	316.5971069335938	1144.117919921875	1352.3857421875	32.5133171081543	1204.470825195312	1318.00830078125	39.44310760498047	1136.759887695312	1238.353759765625	33.92858123779297	1213.68212890625	1115.631103515625	23.22866821289062	1043.794067382812	nan	nan	nan	nan	nan	nan	
261	2.6	1122.780639648438	936.9326782226562	936.3977661132812	1195.547485351562	931.9395141601562	815.1302490234375	1157.99169921875	1034.729370117188	888.6404418945312	1400.527709960938	1244.795166015625	998.5217895507812	1141.714477539062	1158.616821289062	871.901611328125	1188.840576171875	1431.14697265625	905.6094970703125	1364.514038085938	1356.418701171875	973.7354125976562	1094.322509765625	1310.335327148438	963.2608032226562	1201.387939453125	1378.828002929688	803.6807861328125	1326.549560546875	1407.753662109375	773.2100830078125	1370.791870117188	1301.406982421875	675.7123413085938	1457.983276367188	1116.9580078125	635.5526123046875	1368.131103515625	1062.958862304688	641.33740234375	1557.65380859375	998.3643798828125	772.025146484375	1582.971923828125	960.8464965820312	713.0006713867188	1515.213500976562	1054.431762695312	664.9371337890625	1657.978149414062	906.5588989257812	852.99169921875	1638.498779296875	919.4658813476562	755.309326171875	1623.594360351562	965.91748046875	809.1295776367188	1180.843994140625	1402.4716796875	1080.61083984375	1128.523315429688	1346.0751953125	1139.215209960938	1056.091064453125	1085.278076171875	1214.906372070312	1030.101318359375	1069.4111328125	1154.299682617188	1104.335571289062	861.7158203125	1256.40087890625	1019.114685058594	879.1279907226562	1267.7099609375	1039.41650390625	1031.366577148438	1230.698852539062	1037.77978515625	717.068603515625	1278.489868164062	1070.314453125	766.3181762695312	1283.818237304688	999.9606323242188	794.9955444335938	1285.16796875	1229.302734375	1632.158325195312	1016.025512695312	1410.66748046875	1648.0087890625	919.1561889648438	1363.303466796875	1650.8525390625	1039.906860351562	1277.716064453125	1632.346435546875	845.6420288085938	1380.719116210938	843.8045043945312	791.139404296875	1151.76123046875	852.2232666015625	1121.703979492188	1272.52001953125	896.70947265625	1118.6943359375	1417.024291992188	889.4174194335938	905.90380859375	1436.52490234375	428.4895629882812	856.4822998046875	1448.965087890625	585.8292236328125	841.807373046875	1327.349853515625	20.96437644958496	769.6378784179688	1416.667358398438	273.2275085449219	824.9664916992188	1474.79296875	24.48163223266602	964.2511596679688	1398.081909179688	37.62747573852539	941.2588500976562	1459.723754882812	30.23032188415527	845.6832275390625	1253.798217773438	16.35117340087891	782.4248657226562	1195.01513671875	462.0221252441406	1130.14013671875	1260.901611328125	690.439208984375	1197.4140625	1143.833618164062	33.11002731323242	1116.911376953125	1183.106567382812	317.1658325195312	1144.6240234375	1352.202392578125	32.55176162719727	1204.36279296875	1317.898803710938	39.65763854980469	1136.8662109375	1238.222534179688	33.77278900146484	1213.796875	1115.5556640625	23.37096405029297	1043.943603515625	nan	nan	nan	nan	nan	nan	
